<mxfile host="app.diagrams.net" modified="2020-12-21T10:06:28.698Z" agent="5.0 (Windows NT 10.0; Win64; x64) AppleWebKit/537.36 (KHTML, like Gecko) Chrome/87.0.4280.88 Safari/537.36 Edg/87.0.664.66" etag="9SRx6EvB08dv-pg9Exlf" version="14.1.1" type="github">
  <diagram id="C5RBs43oDa-KdzZeNtuy" name="Page-1">
    <mxGraphModel dx="1609" dy="469" grid="1" gridSize="10" guides="1" tooltips="1" connect="1" arrows="1" fold="1" page="1" pageScale="1" pageWidth="827" pageHeight="1169" math="0" shadow="0">
      <root>
        <mxCell id="WIyWlLk6GJQsqaUBKTNV-0" />
        <mxCell id="WIyWlLk6GJQsqaUBKTNV-1" parent="WIyWlLk6GJQsqaUBKTNV-0" />
        <mxCell id="WIyWlLk6GJQsqaUBKTNV-6" value="Jika Nilai &amp;gt;=85, Grade A+" style="rhombus;whiteSpace=wrap;html=1;shadow=0;fontFamily=Helvetica;fontSize=12;align=center;strokeWidth=1;spacing=6;spacingTop=-4;" parent="WIyWlLk6GJQsqaUBKTNV-1" vertex="1">
          <mxGeometry x="170" y="150" width="100" height="80" as="geometry" />
        </mxCell>
        <mxCell id="2ldShOGirL553dG_XOWh-80" style="edgeStyle=orthogonalEdgeStyle;rounded=0;orthogonalLoop=1;jettySize=auto;html=1;entryX=0;entryY=0.5;entryDx=0;entryDy=0;" edge="1" parent="WIyWlLk6GJQsqaUBKTNV-1" source="WIyWlLk6GJQsqaUBKTNV-7" target="2ldShOGirL553dG_XOWh-79">
          <mxGeometry relative="1" as="geometry" />
        </mxCell>
        <mxCell id="WIyWlLk6GJQsqaUBKTNV-7" value="Selamat Anda Lulus Akademi Ini" style="rounded=1;whiteSpace=wrap;html=1;fontSize=12;glass=0;strokeWidth=1;shadow=0;" parent="WIyWlLk6GJQsqaUBKTNV-1" vertex="1">
          <mxGeometry x="320" y="170" width="120" height="40" as="geometry" />
        </mxCell>
        <mxCell id="WIyWlLk6GJQsqaUBKTNV-9" value="Yes" style="edgeStyle=orthogonalEdgeStyle;rounded=0;html=1;jettySize=auto;orthogonalLoop=1;fontSize=11;endArrow=block;endFill=0;endSize=8;strokeWidth=1;shadow=0;labelBackgroundColor=none;" parent="WIyWlLk6GJQsqaUBKTNV-1" source="WIyWlLk6GJQsqaUBKTNV-10" target="WIyWlLk6GJQsqaUBKTNV-12" edge="1">
          <mxGeometry y="10" relative="1" as="geometry">
            <mxPoint as="offset" />
          </mxGeometry>
        </mxCell>
        <mxCell id="WIyWlLk6GJQsqaUBKTNV-10" value="Jika Nilai &amp;gt;= 75, Grade B+" style="rhombus;whiteSpace=wrap;html=1;shadow=0;fontFamily=Helvetica;fontSize=12;align=center;strokeWidth=1;spacing=6;spacingTop=-4;" parent="WIyWlLk6GJQsqaUBKTNV-1" vertex="1">
          <mxGeometry x="170" y="350" width="100" height="80" as="geometry" />
        </mxCell>
        <mxCell id="2ldShOGirL553dG_XOWh-82" value="" style="edgeStyle=orthogonalEdgeStyle;rounded=0;orthogonalLoop=1;jettySize=auto;html=1;entryX=0;entryY=0.5;entryDx=0;entryDy=0;" edge="1" parent="WIyWlLk6GJQsqaUBKTNV-1" source="WIyWlLk6GJQsqaUBKTNV-12" target="2ldShOGirL553dG_XOWh-79">
          <mxGeometry relative="1" as="geometry">
            <mxPoint x="510" y="390" as="targetPoint" />
          </mxGeometry>
        </mxCell>
        <mxCell id="WIyWlLk6GJQsqaUBKTNV-12" value="Selamat Anda Lulus Akademi Ini" style="rounded=1;whiteSpace=wrap;html=1;fontSize=12;glass=0;strokeWidth=1;shadow=0;" parent="WIyWlLk6GJQsqaUBKTNV-1" vertex="1">
          <mxGeometry x="310" y="370" width="130" height="40" as="geometry" />
        </mxCell>
        <mxCell id="2ldShOGirL553dG_XOWh-0" value="Masukkan Nilai Akademi Anda" style="whiteSpace=wrap;html=1;rounded=1;shadow=0;strokeWidth=1;glass=0;" vertex="1" parent="WIyWlLk6GJQsqaUBKTNV-1">
          <mxGeometry x="160" y="10" width="120" height="50" as="geometry" />
        </mxCell>
        <mxCell id="2ldShOGirL553dG_XOWh-4" value="Proses Nilai Akademi" style="rounded=0;whiteSpace=wrap;html=1;" vertex="1" parent="WIyWlLk6GJQsqaUBKTNV-1">
          <mxGeometry x="160" y="80" width="120" height="40" as="geometry" />
        </mxCell>
        <mxCell id="2ldShOGirL553dG_XOWh-12" value="Yes" style="edgeStyle=orthogonalEdgeStyle;rounded=0;html=1;jettySize=auto;orthogonalLoop=1;fontSize=11;endArrow=block;endFill=0;endSize=8;strokeWidth=1;shadow=0;labelBackgroundColor=none;entryX=0;entryY=0.5;entryDx=0;entryDy=0;" edge="1" source="2ldShOGirL553dG_XOWh-11" parent="WIyWlLk6GJQsqaUBKTNV-1" target="2ldShOGirL553dG_XOWh-21">
          <mxGeometry y="10" relative="1" as="geometry">
            <mxPoint as="offset" />
            <mxPoint x="300" y="340" as="targetPoint" />
          </mxGeometry>
        </mxCell>
        <mxCell id="2ldShOGirL553dG_XOWh-88" value="" style="edgeStyle=orthogonalEdgeStyle;rounded=0;orthogonalLoop=1;jettySize=auto;html=1;entryX=0;entryY=0.5;entryDx=0;entryDy=0;" edge="1" parent="WIyWlLk6GJQsqaUBKTNV-1">
          <mxGeometry relative="1" as="geometry">
            <mxPoint x="435" y="496" as="sourcePoint" />
            <mxPoint x="595" y="605" as="targetPoint" />
            <Array as="points">
              <mxPoint x="515" y="496" />
              <mxPoint x="515" y="605" />
            </Array>
          </mxGeometry>
        </mxCell>
        <mxCell id="2ldShOGirL553dG_XOWh-13" value="&lt;span&gt;Selamat Anda Lulus Akademi Ini&lt;/span&gt;" style="rounded=1;whiteSpace=wrap;html=1;fontSize=12;glass=0;strokeWidth=1;shadow=0;" vertex="1" parent="WIyWlLk6GJQsqaUBKTNV-1">
          <mxGeometry x="310" y="476" width="130" height="40" as="geometry" />
        </mxCell>
        <mxCell id="2ldShOGirL553dG_XOWh-15" value="Jika Nilai &amp;gt;= 70,&lt;br&gt;Grade B" style="rhombus;whiteSpace=wrap;html=1;shadow=0;fontFamily=Helvetica;fontSize=12;align=center;strokeWidth=1;spacing=6;spacingTop=-4;" vertex="1" parent="WIyWlLk6GJQsqaUBKTNV-1">
          <mxGeometry x="170" y="450" width="100" height="92" as="geometry" />
        </mxCell>
        <mxCell id="2ldShOGirL553dG_XOWh-16" value="Yes" style="edgeStyle=orthogonalEdgeStyle;rounded=0;html=1;jettySize=auto;orthogonalLoop=1;fontSize=11;endArrow=block;endFill=0;endSize=8;strokeWidth=1;shadow=0;labelBackgroundColor=none;entryX=0;entryY=0.5;entryDx=0;entryDy=0;" edge="1" parent="WIyWlLk6GJQsqaUBKTNV-1" source="2ldShOGirL553dG_XOWh-15" target="2ldShOGirL553dG_XOWh-13">
          <mxGeometry y="10" relative="1" as="geometry">
            <mxPoint as="offset" />
            <mxPoint x="340" y="445" as="targetPoint" />
          </mxGeometry>
        </mxCell>
        <mxCell id="2ldShOGirL553dG_XOWh-19" value="" style="endArrow=classic;html=1;" edge="1" parent="WIyWlLk6GJQsqaUBKTNV-1">
          <mxGeometry width="50" height="50" relative="1" as="geometry">
            <mxPoint x="219.5" y="60" as="sourcePoint" />
            <mxPoint x="220" y="80" as="targetPoint" />
          </mxGeometry>
        </mxCell>
        <mxCell id="2ldShOGirL553dG_XOWh-11" value="Jika Nilai &amp;gt;= 80, Grade A" style="rhombus;whiteSpace=wrap;html=1;shadow=0;fontFamily=Helvetica;fontSize=12;align=center;strokeWidth=1;spacing=6;spacingTop=-4;" vertex="1" parent="WIyWlLk6GJQsqaUBKTNV-1">
          <mxGeometry x="170" y="250" width="100" height="80" as="geometry" />
        </mxCell>
        <mxCell id="2ldShOGirL553dG_XOWh-84" value="" style="edgeStyle=orthogonalEdgeStyle;rounded=0;orthogonalLoop=1;jettySize=auto;html=1;entryX=0;entryY=0.5;entryDx=0;entryDy=0;" edge="1" parent="WIyWlLk6GJQsqaUBKTNV-1" source="2ldShOGirL553dG_XOWh-21" target="2ldShOGirL553dG_XOWh-79">
          <mxGeometry relative="1" as="geometry">
            <mxPoint x="520" y="290" as="targetPoint" />
          </mxGeometry>
        </mxCell>
        <mxCell id="2ldShOGirL553dG_XOWh-21" value="Selamat Anda Lulus Akademi Ini" style="rounded=1;whiteSpace=wrap;html=1;fontSize=12;glass=0;strokeWidth=1;shadow=0;" vertex="1" parent="WIyWlLk6GJQsqaUBKTNV-1">
          <mxGeometry x="320" y="270" width="120" height="40" as="geometry" />
        </mxCell>
        <mxCell id="2ldShOGirL553dG_XOWh-90" value="" style="edgeStyle=orthogonalEdgeStyle;rounded=0;orthogonalLoop=1;jettySize=auto;html=1;" edge="1" parent="WIyWlLk6GJQsqaUBKTNV-1" source="2ldShOGirL553dG_XOWh-23" target="2ldShOGirL553dG_XOWh-79">
          <mxGeometry relative="1" as="geometry">
            <mxPoint x="520" y="606" as="targetPoint" />
          </mxGeometry>
        </mxCell>
        <mxCell id="2ldShOGirL553dG_XOWh-23" value="Selamat Anda Lulus Akademi Ini" style="rounded=1;whiteSpace=wrap;html=1;fontSize=12;glass=0;strokeWidth=1;shadow=0;" vertex="1" parent="WIyWlLk6GJQsqaUBKTNV-1">
          <mxGeometry x="320" y="585" width="120" height="40" as="geometry" />
        </mxCell>
        <mxCell id="2ldShOGirL553dG_XOWh-24" value="Jika Nilai &amp;gt;= 65, Grade C+" style="rhombus;whiteSpace=wrap;html=1;shadow=0;fontFamily=Helvetica;fontSize=12;align=center;strokeWidth=1;spacing=6;spacingTop=-4;" vertex="1" parent="WIyWlLk6GJQsqaUBKTNV-1">
          <mxGeometry x="170" y="560" width="100" height="92" as="geometry" />
        </mxCell>
        <mxCell id="2ldShOGirL553dG_XOWh-25" value="Yes" style="edgeStyle=orthogonalEdgeStyle;rounded=0;html=1;jettySize=auto;orthogonalLoop=1;fontSize=11;endArrow=block;endFill=0;endSize=8;strokeWidth=1;shadow=0;labelBackgroundColor=none;entryX=0;entryY=0.5;entryDx=0;entryDy=0;" edge="1" parent="WIyWlLk6GJQsqaUBKTNV-1" source="2ldShOGirL553dG_XOWh-24" target="2ldShOGirL553dG_XOWh-23">
          <mxGeometry y="10" relative="1" as="geometry">
            <mxPoint as="offset" />
            <mxPoint x="350" y="593" as="targetPoint" />
          </mxGeometry>
        </mxCell>
        <mxCell id="2ldShOGirL553dG_XOWh-92" value="" style="edgeStyle=orthogonalEdgeStyle;rounded=0;orthogonalLoop=1;jettySize=auto;html=1;entryX=0;entryY=0.5;entryDx=0;entryDy=0;exitX=1;exitY=0.5;exitDx=0;exitDy=0;" edge="1" parent="WIyWlLk6GJQsqaUBKTNV-1" source="2ldShOGirL553dG_XOWh-26">
          <mxGeometry relative="1" as="geometry">
            <mxPoint x="444" y="716" as="sourcePoint" />
            <mxPoint x="594" y="605" as="targetPoint" />
            <Array as="points">
              <mxPoint x="514" y="716" />
              <mxPoint x="514" y="605" />
            </Array>
          </mxGeometry>
        </mxCell>
        <mxCell id="2ldShOGirL553dG_XOWh-26" value="Selamat Anda Lulus Akademi Ini" style="rounded=1;whiteSpace=wrap;html=1;fontSize=12;glass=0;strokeWidth=1;shadow=0;" vertex="1" parent="WIyWlLk6GJQsqaUBKTNV-1">
          <mxGeometry x="310" y="696" width="130" height="40" as="geometry" />
        </mxCell>
        <mxCell id="2ldShOGirL553dG_XOWh-57" value="" style="edgeStyle=orthogonalEdgeStyle;rounded=0;orthogonalLoop=1;jettySize=auto;html=1;" edge="1" parent="WIyWlLk6GJQsqaUBKTNV-1" source="2ldShOGirL553dG_XOWh-27" target="2ldShOGirL553dG_XOWh-56">
          <mxGeometry relative="1" as="geometry" />
        </mxCell>
        <mxCell id="2ldShOGirL553dG_XOWh-27" value="Jika Nilai &amp;gt;= 60, Grade C" style="rhombus;whiteSpace=wrap;html=1;shadow=0;fontFamily=Helvetica;fontSize=12;align=center;strokeWidth=1;spacing=6;spacingTop=-4;" vertex="1" parent="WIyWlLk6GJQsqaUBKTNV-1">
          <mxGeometry x="170" y="670" width="100" height="92" as="geometry" />
        </mxCell>
        <mxCell id="2ldShOGirL553dG_XOWh-28" value="Yes" style="edgeStyle=orthogonalEdgeStyle;rounded=0;html=1;jettySize=auto;orthogonalLoop=1;fontSize=11;endArrow=block;endFill=0;endSize=8;strokeWidth=1;shadow=0;labelBackgroundColor=none;entryX=0;entryY=0.5;entryDx=0;entryDy=0;" edge="1" parent="WIyWlLk6GJQsqaUBKTNV-1" source="2ldShOGirL553dG_XOWh-27" target="2ldShOGirL553dG_XOWh-26">
          <mxGeometry y="10" relative="1" as="geometry">
            <mxPoint as="offset" />
            <mxPoint x="360" y="725" as="targetPoint" />
          </mxGeometry>
        </mxCell>
        <mxCell id="2ldShOGirL553dG_XOWh-29" style="edgeStyle=orthogonalEdgeStyle;rounded=0;orthogonalLoop=1;jettySize=auto;html=1;exitX=0.5;exitY=1;exitDx=0;exitDy=0;" edge="1" parent="WIyWlLk6GJQsqaUBKTNV-1" source="2ldShOGirL553dG_XOWh-4" target="2ldShOGirL553dG_XOWh-4">
          <mxGeometry relative="1" as="geometry" />
        </mxCell>
        <mxCell id="2ldShOGirL553dG_XOWh-36" value="" style="endArrow=classic;html=1;" edge="1" parent="WIyWlLk6GJQsqaUBKTNV-1">
          <mxGeometry width="50" height="50" relative="1" as="geometry">
            <mxPoint x="220" y="120" as="sourcePoint" />
            <mxPoint x="220" y="150" as="targetPoint" />
          </mxGeometry>
        </mxCell>
        <mxCell id="2ldShOGirL553dG_XOWh-43" value="Yes" style="rounded=0;html=1;jettySize=auto;orthogonalLoop=1;fontSize=11;endArrow=block;endFill=0;endSize=8;strokeWidth=1;shadow=0;labelBackgroundColor=none;edgeStyle=orthogonalEdgeStyle;" edge="1" parent="WIyWlLk6GJQsqaUBKTNV-1">
          <mxGeometry x="-1" y="-335" relative="1" as="geometry">
            <mxPoint x="5" y="-60" as="offset" />
            <mxPoint x="219.5" y="652" as="sourcePoint" />
            <mxPoint x="219.5" y="672" as="targetPoint" />
          </mxGeometry>
        </mxCell>
        <mxCell id="2ldShOGirL553dG_XOWh-46" value="Yes" style="rounded=0;html=1;jettySize=auto;orthogonalLoop=1;fontSize=11;endArrow=block;endFill=0;endSize=8;strokeWidth=1;shadow=0;labelBackgroundColor=none;edgeStyle=orthogonalEdgeStyle;" edge="1" parent="WIyWlLk6GJQsqaUBKTNV-1">
          <mxGeometry x="-1" y="-335" relative="1" as="geometry">
            <mxPoint x="5" y="-60" as="offset" />
            <mxPoint x="220" y="540" as="sourcePoint" />
            <mxPoint x="220" y="560" as="targetPoint" />
          </mxGeometry>
        </mxCell>
        <mxCell id="2ldShOGirL553dG_XOWh-47" value="Yes" style="edgeStyle=orthogonalEdgeStyle;rounded=0;html=1;jettySize=auto;orthogonalLoop=1;fontSize=11;endArrow=block;endFill=0;endSize=8;strokeWidth=1;shadow=0;labelBackgroundColor=none;entryX=0;entryY=0.5;entryDx=0;entryDy=0;" edge="1" parent="WIyWlLk6GJQsqaUBKTNV-1">
          <mxGeometry y="10" relative="1" as="geometry">
            <mxPoint as="offset" />
            <mxPoint x="270" y="189.5" as="sourcePoint" />
            <mxPoint x="320" y="189.5" as="targetPoint" />
            <Array as="points">
              <mxPoint x="300" y="189.5" />
              <mxPoint x="300" y="189.5" />
            </Array>
          </mxGeometry>
        </mxCell>
        <mxCell id="2ldShOGirL553dG_XOWh-49" value="Yes" style="rounded=0;html=1;jettySize=auto;orthogonalLoop=1;fontSize=11;endArrow=block;endFill=0;endSize=8;strokeWidth=1;shadow=0;labelBackgroundColor=none;edgeStyle=orthogonalEdgeStyle;" edge="1" parent="WIyWlLk6GJQsqaUBKTNV-1">
          <mxGeometry x="-1" y="-335" relative="1" as="geometry">
            <mxPoint x="5" y="-60" as="offset" />
            <mxPoint x="220" y="430" as="sourcePoint" />
            <mxPoint x="220" y="450" as="targetPoint" />
          </mxGeometry>
        </mxCell>
        <mxCell id="2ldShOGirL553dG_XOWh-50" value="Yes" style="rounded=0;html=1;jettySize=auto;orthogonalLoop=1;fontSize=11;endArrow=block;endFill=0;endSize=8;strokeWidth=1;shadow=0;labelBackgroundColor=none;edgeStyle=orthogonalEdgeStyle;" edge="1" parent="WIyWlLk6GJQsqaUBKTNV-1">
          <mxGeometry x="-1" y="-335" relative="1" as="geometry">
            <mxPoint x="5" y="-60" as="offset" />
            <mxPoint x="221" y="330" as="sourcePoint" />
            <mxPoint x="221" y="350" as="targetPoint" />
          </mxGeometry>
        </mxCell>
        <mxCell id="2ldShOGirL553dG_XOWh-59" value="" style="edgeStyle=orthogonalEdgeStyle;rounded=0;orthogonalLoop=1;jettySize=auto;html=1;" edge="1" parent="WIyWlLk6GJQsqaUBKTNV-1" source="2ldShOGirL553dG_XOWh-56" target="2ldShOGirL553dG_XOWh-58">
          <mxGeometry relative="1" as="geometry" />
        </mxCell>
        <mxCell id="2ldShOGirL553dG_XOWh-56" value="Jika Nilai &amp;gt;= 50, Grade D" style="rhombus;whiteSpace=wrap;html=1;shadow=0;fontFamily=Helvetica;fontSize=12;align=center;strokeWidth=1;spacing=6;spacingTop=-4;" vertex="1" parent="WIyWlLk6GJQsqaUBKTNV-1">
          <mxGeometry x="170" y="780" width="100" height="92" as="geometry" />
        </mxCell>
        <mxCell id="2ldShOGirL553dG_XOWh-58" value="Jika Nilai &amp;gt;= 40, Grade E" style="rhombus;whiteSpace=wrap;html=1;shadow=0;fontFamily=Helvetica;fontSize=12;align=center;strokeWidth=1;spacing=6;spacingTop=-4;" vertex="1" parent="WIyWlLk6GJQsqaUBKTNV-1">
          <mxGeometry x="170" y="890" width="100" height="92" as="geometry" />
        </mxCell>
        <mxCell id="2ldShOGirL553dG_XOWh-62" value="Jika Nilai &amp;lt;40, Grade F" style="rhombus;whiteSpace=wrap;html=1;shadow=0;fontFamily=Helvetica;fontSize=12;align=center;strokeWidth=1;spacing=6;spacingTop=-4;" vertex="1" parent="WIyWlLk6GJQsqaUBKTNV-1">
          <mxGeometry x="170" y="1010" width="100" height="92" as="geometry" />
        </mxCell>
        <mxCell id="2ldShOGirL553dG_XOWh-94" value="" style="edgeStyle=orthogonalEdgeStyle;rounded=0;orthogonalLoop=1;jettySize=auto;html=1;entryX=0;entryY=0.5;entryDx=0;entryDy=0;" edge="1" parent="WIyWlLk6GJQsqaUBKTNV-1">
          <mxGeometry relative="1" as="geometry">
            <mxPoint x="423" y="826" as="sourcePoint" />
            <mxPoint x="583" y="605" as="targetPoint" />
            <Array as="points">
              <mxPoint x="513" y="826" />
              <mxPoint x="513" y="605" />
            </Array>
          </mxGeometry>
        </mxCell>
        <mxCell id="2ldShOGirL553dG_XOWh-63" value="Maaf, Anda Belum Lulus Akademi Ini" style="rounded=1;whiteSpace=wrap;html=1;fontSize=12;glass=0;strokeWidth=1;shadow=0;" vertex="1" parent="WIyWlLk6GJQsqaUBKTNV-1">
          <mxGeometry x="310" y="806" width="120" height="40" as="geometry" />
        </mxCell>
        <mxCell id="2ldShOGirL553dG_XOWh-96" value="" style="edgeStyle=orthogonalEdgeStyle;rounded=0;orthogonalLoop=1;jettySize=auto;html=1;entryX=0;entryY=0.25;entryDx=0;entryDy=0;" edge="1" parent="WIyWlLk6GJQsqaUBKTNV-1">
          <mxGeometry relative="1" as="geometry">
            <mxPoint x="420" y="936" as="sourcePoint" />
            <mxPoint x="593" y="595" as="targetPoint" />
            <Array as="points">
              <mxPoint x="513" y="936" />
              <mxPoint x="513" y="605" />
              <mxPoint x="593" y="605" />
            </Array>
          </mxGeometry>
        </mxCell>
        <mxCell id="2ldShOGirL553dG_XOWh-64" value="Maaf, Anda Belum Lulus Akademi Ini" style="rounded=1;whiteSpace=wrap;html=1;fontSize=12;glass=0;strokeWidth=1;shadow=0;" vertex="1" parent="WIyWlLk6GJQsqaUBKTNV-1">
          <mxGeometry x="310" y="914" width="120" height="44" as="geometry" />
        </mxCell>
        <mxCell id="2ldShOGirL553dG_XOWh-67" value="" style="edgeStyle=orthogonalEdgeStyle;rounded=0;orthogonalLoop=1;jettySize=auto;html=1;" edge="1" parent="WIyWlLk6GJQsqaUBKTNV-1" source="2ldShOGirL553dG_XOWh-58">
          <mxGeometry relative="1" as="geometry">
            <mxPoint x="219.5" y="992" as="sourcePoint" />
            <mxPoint x="219.5" y="1010" as="targetPoint" />
            <Array as="points">
              <mxPoint x="220" y="1000" />
            </Array>
          </mxGeometry>
        </mxCell>
        <mxCell id="2ldShOGirL553dG_XOWh-98" value="" style="edgeStyle=orthogonalEdgeStyle;rounded=0;orthogonalLoop=1;jettySize=auto;html=1;entryX=0;entryY=0.5;entryDx=0;entryDy=0;exitX=1;exitY=0.5;exitDx=0;exitDy=0;" edge="1" parent="WIyWlLk6GJQsqaUBKTNV-1" source="2ldShOGirL553dG_XOWh-68">
          <mxGeometry relative="1" as="geometry">
            <mxPoint x="433" y="1056" as="sourcePoint" />
            <mxPoint x="593" y="605" as="targetPoint" />
            <Array as="points">
              <mxPoint x="513" y="1056" />
              <mxPoint x="513" y="605" />
            </Array>
          </mxGeometry>
        </mxCell>
        <mxCell id="2ldShOGirL553dG_XOWh-68" value="Maaf, Anda Belum Lulus Akademi Ini" style="rounded=1;whiteSpace=wrap;html=1;fontSize=12;glass=0;strokeWidth=1;shadow=0;" vertex="1" parent="WIyWlLk6GJQsqaUBKTNV-1">
          <mxGeometry x="310" y="1034" width="120" height="44" as="geometry" />
        </mxCell>
        <mxCell id="2ldShOGirL553dG_XOWh-70" value="Yes" style="edgeStyle=orthogonalEdgeStyle;rounded=0;html=1;jettySize=auto;orthogonalLoop=1;fontSize=11;endArrow=block;endFill=0;endSize=8;strokeWidth=1;shadow=0;labelBackgroundColor=none;entryX=0;entryY=0.5;entryDx=0;entryDy=0;" edge="1" parent="WIyWlLk6GJQsqaUBKTNV-1">
          <mxGeometry y="10" relative="1" as="geometry">
            <mxPoint as="offset" />
            <mxPoint x="312" y="826" as="targetPoint" />
            <mxPoint x="270" y="826" as="sourcePoint" />
          </mxGeometry>
        </mxCell>
        <mxCell id="2ldShOGirL553dG_XOWh-76" value="Yes" style="edgeStyle=orthogonalEdgeStyle;rounded=0;html=1;jettySize=auto;orthogonalLoop=1;fontSize=11;endArrow=block;endFill=0;endSize=8;strokeWidth=1;shadow=0;labelBackgroundColor=none;entryX=0;entryY=0.5;entryDx=0;entryDy=0;" edge="1" parent="WIyWlLk6GJQsqaUBKTNV-1">
          <mxGeometry y="10" relative="1" as="geometry">
            <mxPoint as="offset" />
            <mxPoint x="312" y="935.5" as="targetPoint" />
            <mxPoint x="270" y="935.5" as="sourcePoint" />
          </mxGeometry>
        </mxCell>
        <mxCell id="2ldShOGirL553dG_XOWh-77" value="Yes" style="edgeStyle=orthogonalEdgeStyle;rounded=0;html=1;jettySize=auto;orthogonalLoop=1;fontSize=11;endArrow=block;endFill=0;endSize=8;strokeWidth=1;shadow=0;labelBackgroundColor=none;entryX=0;entryY=0.5;entryDx=0;entryDy=0;" edge="1" parent="WIyWlLk6GJQsqaUBKTNV-1">
          <mxGeometry x="-0.5238" y="-10" relative="1" as="geometry">
            <mxPoint as="offset" />
            <mxPoint x="312" y="1055.5" as="targetPoint" />
            <mxPoint x="270" y="1055.5" as="sourcePoint" />
          </mxGeometry>
        </mxCell>
        <mxCell id="2ldShOGirL553dG_XOWh-79" value="Selesai" style="rounded=1;whiteSpace=wrap;html=1;fontSize=12;glass=0;strokeWidth=1;shadow=0;" vertex="1" parent="WIyWlLk6GJQsqaUBKTNV-1">
          <mxGeometry x="590" y="585" width="120" height="40" as="geometry" />
        </mxCell>
      </root>
    </mxGraphModel>
  </diagram>
</mxfile>
